HIERARCHY
ROOT Hips
{
	OFFSET 0.000000 0.000000 0.000000
	CHANNELS 6 Xposition Yposition Zposition Zrotation Yrotation Xrotation 
	JOINT LHipJoint
	{
		OFFSET 0.000000 0.000000 0.000000
		CHANNELS 3 Zrotation Yrotation Xrotation
		JOINT LeftUpLeg
		{
			OFFSET 1.363060 -1.794630 0.839290
			CHANNELS 3 Zrotation Yrotation Xrotation
			JOINT LeftLeg
			{
				OFFSET 2.448110 -6.726130 0.000000
				CHANNELS 3 Zrotation Yrotation Xrotation
				JOINT LeftFoot
				{
					OFFSET 2.562200 -7.039590 0.000000
					CHANNELS 3 Zrotation Yrotation Xrotation
					JOINT LeftToeBase
					{
						OFFSET 0.157640 -0.433110 2.322550
						CHANNELS 3 Zrotation Yrotation Xrotation
						End Site
						{
							OFFSET 0.000000 0.000000 0.000000
						}
					}
				}
			}
		}
	}
	JOINT RHipJoint
	{
		OFFSET 0.000000 0.000000 0.000000
		CHANNELS 3 Zrotation Yrotation Xrotation
		JOINT RightUpLeg
		{
			OFFSET -1.305520 -1.794630 0.839290
			CHANNELS 3 Zrotation Yrotation Xrotation
			JOINT RightLeg
			{
				OFFSET -2.542530 -6.985550 0.000000
				CHANNELS 3 Zrotation Yrotation Xrotation
				JOINT RightFoot
				{
					OFFSET -2.568260 -7.056230 0.000000
					CHANNELS 3 Zrotation Yrotation Xrotation
					JOINT RightToeBase
					{
						OFFSET -0.164730 -0.452590 2.363150
						CHANNELS 3 Zrotation Yrotation Xrotation
						End Site
						{
							OFFSET 0.000000 0.000000 0.000000
						}
					}
				}
			}
		}
	}
}
MOTION
Frames: 14
Frame Time: 0.008333
27.036974 17.384148 2.121541 90.158096 -86.069308 -59.126328 -8.419137 1.717634 2.990040 -15.398297 -2.893071 -56.426779 -0.673122 2.849405 52.682495 2.074783 10.279506 -4.281326 1.068500 0.000000 -35.324001 12.294175 -3.387851 2.254571 3.416895 -4.431950 -10.602633 1.292582 -0.106696 7.612837 0.182403 1.962758 17.225214 0.465800 -0.000000 -73.088800
26.821955 17.434730 2.123552 91.926352 -86.199821 -60.721271 -8.310936 1.822969 3.066238 -15.825761 -2.731127 -56.295204 -0.969675 2.718266 49.995467 1.935474 9.431095 -4.244673 1.029100 0.000000 -36.083900 12.368879 -3.453194 2.242501 3.227372 -4.445901 -10.605741 1.153367 -0.213090 8.186274 0.080415 1.604773 18.885512 0.406401 0.000000 -72.245600
26.606703 17.475299 2.126114 93.305541 -86.348262 -61.920125 -8.202231 1.926767 3.161882 -16.182371 -2.619175 -56.123331 -1.285055 2.569513 47.229429 1.791356 8.544759 -4.321562 0.965101 0.000000 -36.730800 12.422543 -3.491902 2.241788 3.089490 -4.304420 -10.644558 0.988417 -0.303884 9.041647 -0.074462 0.687286 19.931226 0.059300 -0.000000 -71.232100
26.391215 17.504990 2.129528 94.267912 -86.518558 -62.695710 -8.096531 2.025097 3.284659 -16.453792 -2.570211 -55.919545 -1.611179 2.399609 44.410790 1.644816 7.640959 -4.461185 0.889900 0.000000 -37.332000 12.455482 -3.502732 2.247929 3.007076 -4.042784 -10.756785 0.803111 -0.384135 10.264090 -0.272952 -0.705289 20.321915 -0.543200 -0.000000 -69.765900
26.175626 17.523348 2.133932 94.685363 -86.708917 -62.940291 -7.996136 2.114261 3.430896 -16.626770 -2.593845 -55.650793 -1.937383 2.205895 41.569743 1.500469 6.754759 -4.624087 0.813599 -0.000000 -37.802200 12.470366 -3.486036 2.250096 2.974380 -3.696021 -10.891946 0.602926 -0.455056 11.797300 -0.511558 -2.475041 20.156814 -1.332700 -0.000001 -68.173800
25.960418 17.529943 2.139923 94.482349 -86.931353 -62.595794 -7.908409 2.185842 3.594229 -16.676059 -2.680594 -55.309924 -2.247873 1.989966 38.764272 1.364117 5.926441 -4.774168 0.744200 -0.000000 -38.132100 12.464376 -3.445246 2.243612 3.002830 -3.275495 -11.025338 0.395330 -0.520252 13.619429 -0.785474 -4.493753 19.534332 -2.215400 0.000000 -66.499100
25.745475 17.524003 2.147444 93.761072 -87.171271 -61.773739 -7.833899 2.238935 3.772451 -16.609599 -2.839683 -54.889122 -2.526576 1.755621 36.059281 1.246611 5.219577 -4.893794 0.688600 -0.000001 -38.287400 12.446646 -3.381002 2.218783 3.063760 -2.848656 -11.178524 0.190577 -0.587579 15.764458 -1.077961 -6.545101 18.522671 -3.053900 0.000000 -64.656600
25.531671 17.505322 2.157109 92.427124 -87.444623 -60.398596 -7.780263 2.266071 3.950210 -16.405425 -3.045618 -54.393413 -2.755646 1.514295 33.556477 1.156230 4.672714 -5.001251 0.645800 0.000000 -38.238500 12.413801 -3.303248 2.174882 3.172245 -2.406757 -11.307320 -0.004444 -0.660890 18.153695 -1.377690 -8.523209 17.291417 -3.783000 -0.000001 -62.923800
25.319257 17.473377 2.168735 90.600189 -87.738390 -58.594066 -7.745757 2.269797 4.120566 -16.082683 -3.298399 -53.838092 -2.922594 1.279158 31.356077 1.104479 4.333417 -5.137708 0.614600 0.000000 -37.963300 12.375414 -3.217688 2.108984 3.298630 -1.993235 -11.432758 -0.182661 -0.747482 20.787105 -1.660899 -10.263872 15.934777 -4.325300 0.000001 -61.291100
25.108442 17.427935 2.182164 88.356671 -88.046333 -56.438268 -7.728451 2.253293 4.273708 -15.661788 -3.588668 -53.248624 -3.020467 1.066134 29.565655 1.100192 4.225348 -5.370741 0.589000 0.000000 -37.450100 12.337978 -3.131906 2.022479 3.422785 -1.626001 -11.560193 -0.340583 -0.851577 23.629222 -1.906431 -11.664658 14.552570 -4.652400 0.000001 -59.812600
24.899864 17.369176 2.197601 85.578285 -88.383056 -53.814158 -7.731582 2.217456 4.394631 -15.150009 -3.879321 -52.666705 -3.048131 0.893970 28.302916 1.145819 4.329881 -5.787898 0.554999 0.000000 -36.694800 12.297927 -3.054463 1.923412 3.559050 -1.275871 -11.669864 -0.480947 -0.971741 26.598575 -2.104828 -12.722541 13.273924 -4.801600 -0.000000 -58.862800
24.694054 17.297320 2.214710 82.267696 -88.741668 -50.721171 -7.751609 2.169227 4.474991 -14.585037 -4.151762 -52.122918 -3.013040 0.776245 27.650390 1.242461 4.623704 -6.471215 0.495900 0.000000 -35.698600 12.259565 -2.986926 1.814429 3.688317 -0.955045 -11.771829 -0.606156 -1.106634 29.664445 -2.244891 -13.403248 12.132401 -4.788800 -0.000000 -58.418100
24.490796 17.212290 2.232189 79.078849 -89.081486 -47.783462 -7.772633 2.117759 4.524468 -14.038212 -4.438401 -51.657947 -2.928761 0.714827 27.634459 1.394063 5.108509 -7.471452 0.396300 0.000000 -34.469500 12.243441 -2.926967 1.702824 3.736140 -0.707224 -11.962588 -0.716978 -1.259258 32.883011 -2.315472 -13.639215 11.066117 -4.599100 0.000000 -58.088399
24.290524 17.115392 2.250794 75.446623 -89.444224 -44.446185 -7.809319 2.060043 4.521308 -13.498989 -4.652363 -51.294425 -2.808588 0.721859 28.309602 1.585511 5.686116 -8.846016 0.226199 -0.000000 -33.025100 12.228781 -2.876497 1.594211 3.765738 -0.468049 -12.168190 -0.822598 -1.418206 36.130719 -2.334291 -13.574545 10.155910 -4.327600 -0.000001 -58.342300
